<svg xmlns="http://www.w3.org/2000/svg" viewBox="0 0 941.5 939.5"><path fill="#002484" d="M3.5 0v938h938V0H3.5Zm439 320h-108V161.624C218.33 214.566 137.5 332.27 137.5 469s80.831 254.421 197 307.36V613h108v302.49C211 899.957 28 705.997 28 469S210.89 38.151 442.292 22.517c.07-.005.139-.007.208-.012V320Zm454.642 281.632c-23.628 76.757-67.215 144.676-124.665 197.599l-74.221-80.998a332.472 332.472 0 0 0 72.327-90.99L669.126 524H612.5v369.843a439.929 439.929 0 0 1-106 21.366V22.791a439.938 439.938 0 0 1 106 21.366V417h56.228l102.76-104.569a332.417 332.417 0 0 0-71.911-91.5l74.189-80.963c57.38 53.277 100.788 121.576 124.076 198.694L808.22 429.86l-.013-.105-26.744 27.215-13.47 13.237 129.15 131.424Z"/><path fill="#fff" d="m767.992 470.209 13.471-13.238 26.744-27.215c.004.035.01.07.013.105l89.622-91.2c-23.288-77.117-66.695-145.416-124.076-198.693l-74.19 80.963a332.414 332.414 0 0 1 71.912 91.5L668.728 417H612.5V44.157a439.929 439.929 0 0 0-106-21.366v892.418a439.938 439.938 0 0 0 106-21.366V524h56.626l101.457 103.243a332.475 332.475 0 0 1-72.327 90.99l74.22 80.998c57.451-52.923 101.038-120.842 124.666-197.598l-129.15-131.424ZM442.5 320V22.505c-.07.004-.139.007-.208.012C210.89 38.151 28 232.073 28 469s183 430.957 414.5 446.49V613h-108v163.36c-116.169-52.939-197-170.631-197-307.36s80.83-254.434 197-307.377V320h108Z"/></svg>