<?xml version="1.0" encoding="UTF-8"?>
<svg xmlns="http://www.w3.org/2000/svg" viewBox="0 0 942 940">
  <g id="Square_Background" data-name="Square Background">
    <path d="m4,938V1h937v937H4ZM442.26,22.52C209.68,38.23,27.5,234.57,27.5,469.5s182.27,431.38,414.97,446.99l.53.04v-303.53h-109v163.08c-57.51-26.37-106.31-68.46-141.14-121.75-35.89-54.9-54.86-118.81-54.86-184.83s18.97-129.93,54.85-184.83c34.84-53.3,83.63-95.39,141.15-121.76v158.1h109V22.47l-.74.05Zm63.74,893.73l.54-.04c36.14-2.75,71.85-9.95,106.12-21.39l.34-.11v-369.7h55.92l101.05,102.83c-18.6,34.28-42.83,64.74-72.04,90.53l-.38.34,74.9,81.74.37-.34c58.36-53.76,101.52-122.17,124.8-197.82l.09-.29-129.01-131.28,13.11-12.89,26.01-26.47.75-.65,89.83-91.41-.09-.28c-22.95-75.99-65.9-144.77-124.21-198.92l-.37-.34-74.87,81.71.38.34c29.11,25.98,53.21,56.61,71.63,91.04l-102.36,104.16h-55.52V44.3l-.34-.11c-34.27-11.44-69.98-18.64-106.12-21.39l-.54-.04v893.5Z" fill="#fff"/>
  </g>
  <g id="Circle_Background" data-name="Circle Background">
    <path d="m472.5.5C213.48.5,3.5,210.48,3.5,469.5s209.98,469,469,469,469-209.98,469-469S731.52.5,472.5.5Zm-30,320h-108v-158.38c-116.17,52.94-197,170.65-197,307.38s80.83,254.42,197,307.36v-163.36h108v302.49c-231.5-15.53-414.5-209.49-414.5-446.49S210.89,38.65,442.29,23.02c.07,0,.14,0,.21-.01v297.5Zm454.64,281.63c-23.63,76.76-67.21,144.68-124.67,197.6l-74.22-81c29.11-25.7,53.67-56.5,72.33-90.99l-101.46-103.24h-56.63v369.84c-33.72,11.26-69.24,18.57-106,21.37V23.29c36.76,2.8,72.28,10.11,106,21.37v372.84h56.23l102.76-104.57c-18.49-34.65-42.91-65.62-71.91-91.5l74.19-80.96c57.38,53.28,100.79,121.58,124.08,198.69l-89.62,91.2s0-.07-.01-.1l-26.74,27.21-13.47,13.24,129.15,131.42Z" fill="#fffffe"/>
  </g>
  <g id="Letters">
    <g id="K">
      <path d="m767.99,470.71l13.47-13.24,26.74-27.21s0,.07.01.1l89.62-91.2c-23.29-77.12-66.69-145.42-124.08-198.69l-74.19,80.96c29,25.88,53.42,56.85,71.91,91.5l-102.76,104.57h-56.23V44.66c-33.72-11.26-69.24-18.57-106-21.37v892.42c36.76-2.8,72.28-10.11,106-21.37v-369.84h56.63l101.46,103.24c-18.66,34.49-43.22,65.29-72.33,90.99l74.22,81c57.45-52.92,101.04-120.84,124.67-197.6l-129.15-131.42Z" fill="#000002"/>
    </g>
    <g id="C">
      <path d="m442.5,320.5V23c-.07,0-.14,0-.21.01C210.89,38.65,28,232.57,28,469.5s183,430.96,414.5,446.49v-302.49h-108v163.36c-116.17-52.94-197-170.63-197-307.36s80.83-254.43,197-307.38v158.38h108Z" fill="#000001"/>
    </g>
  </g>
</svg>