<?xml version="1.0" encoding="UTF-8"?><svg xmlns="http://www.w3.org/2000/svg" viewBox="0 0 941.5 939.5"><g id="BG"><g id="circle"><path d="m472.5,0C213.4785,0,3.5,209.9785,3.5,469s209.9785,469,469,469,469-209.9785,469-469S731.5215,0,472.5,0Zm-30,320h-108v-158.3765c-116.1696,52.9426-197,170.6464-197,307.3765s80.8314,254.421,197,307.36v-163.36h108v302.49c-231.5001-15.5331-414.5-209.4932-414.5-446.49S210.8895,38.1514,442.2921,22.5171c.0692-.0047.1387-.0076.2079-.0123v297.4952Zm454.6422,281.6324c-23.6279,76.7562-67.215,144.6759-124.6653,197.5986l-74.2213-80.9984c29.1105-25.7018,53.6663-56.4969,72.3273-90.9899l-101.4565-103.2428h-56.6264v369.8428c-33.7238,11.2579-69.2359,18.5668-106,21.3663V22.7908c36.7641,2.7996,72.2762,10.1085,106,21.3663v372.8428h56.2285l102.7594-104.5688c-18.4876-34.6511-42.9069-65.6173-71.911-91.5004l74.1887-80.9626c57.3813,53.2772,100.7883,121.5759,124.076,198.6937l-89.6212,91.1992c-.0041-.0351-.0094-.0699-.0135-.105l-26.7437,27.2146-13.4709,13.2379,129.1499,131.4239Z" fill="#fff"/></g><g id="square"><path d="m3.5,0v938h938V0H3.5Zm439,320h-108v-158.3765c-116.1696,52.9426-197,170.6464-197,307.3765s80.8314,254.421,197,307.36v-163.36h108v302.49c-231.5001-15.5331-414.5-209.4932-414.5-446.49S210.8895,38.1514,442.2921,22.5171c.0692-.0047.1387-.0076.2079-.0123v297.4952Zm454.6422,281.6324c-23.6279,76.7562-67.215,144.6759-124.6653,197.5986l-74.2213-80.9984c29.1105-25.7018,53.6663-56.4969,72.3273-90.9899l-101.4565-103.2428h-56.6264v369.8428c-33.7238,11.2579-69.2359,18.5668-106,21.3663V22.7908c36.7641,2.7996,72.2762,10.1085,106,21.3663v372.8428h56.2285l102.7594-104.5688c-18.4876-34.6511-42.9069-65.6173-71.911-91.5004l74.1887-80.9626c57.3813,53.2772,100.7883,121.5759,124.076,198.6937l-89.6212,91.1992c-.0041-.0351-.0094-.0699-.0135-.105l-26.7437,27.2146-13.4709,13.2379,129.1499,131.4239Z" fill="#fff"/></g></g><g id="FG"><g id="K"><path d="m767.9922,470.2086l13.4709-13.2379,26.7437-27.2146c.0041.0351.0094.0699.0135.105l89.6212-91.1992c-23.2877-77.1179-66.6946-145.4166-124.076-198.6937l-74.1887,80.9626c29.0042,25.8831,53.4234,56.8492,71.911,91.5004l-102.7594,104.5688h-56.2285V44.1572c-33.7238-11.2579-69.2359-18.5668-106-21.3663v892.4183c36.7641-2.7996,72.2762-10.1085,106-21.3663v-369.8428h56.6264l101.4565,103.2428c-18.661,34.4929-43.2168,65.288-72.3273,90.9899l74.2213,80.9984c57.4503-52.9227,101.0374-120.8424,124.6653-197.5986l-129.1499-131.4239Z" fill="#000001"/></g><g id="C"><path d="m442.5,320V22.5048c-.0692.0046-.1387.0076-.2079.0123C210.8895,38.1514,28,232.0735,28,469s182.9999,430.9569,414.5,446.49v-302.49h-108v163.36c-116.1686-52.939-197-170.6315-197-307.36s80.8304-254.434,197-307.3765v158.3765h108Z" fill="#000001"/></g></g></svg>